<?xml version="1.0" encoding="utf-8"?>
<!-- Generator: Adobe Illustrator 22.0.0, SVG Export Plug-In . SVG Version: 6.00 Build 0)  -->
<svg version="1.1" id="Camada_1" xmlns="http://www.w3.org/2000/svg" xmlns:xlink="http://www.w3.org/1999/xlink" x="0px" y="0px"
	 viewBox="0 0 350 70" style="enable-background:new 0 0 350 70;" xml:space="preserve">
<style type="text/css">
	.st0{fill-rule:evenodd;clip-rule:evenodd;fill:#FFFFFF;}
	.st1{fill-rule:evenodd;clip-rule:evenodd;fill:#41BBCB;}
	.st2{fill-rule:evenodd;clip-rule:evenodd;fill:#010202;}
</style>
<g>
	<path class="st1" d="M98.7,15.7h16.1v12.9H98.7c-10.7,0-17,3.3-20.6,7.2c-1.5-3.1-3.2-5.9-5.2-8.4C78.8,20.1,87,15.7,98.7,15.7
		L98.7,15.7z M72.5,48h-9.7c1.3-4.4,2.7-8.5,4.5-12.2C72.1,40.8,72.5,46.8,72.5,48L72.5,48z M114.8,28.8H98.7v38.5h16.1V28.8z"/>
	<path class="st2" d="M30.8,15.7h16.1c20.4,0,30,13,35.5,32.2h-9.7c0-2-1.3-19.3-25.8-19.3v38.7H30.8V28.7c-9.7,0-19.6-4.3-19.5-13
		c0.1-9.2,8.2-13,16.6-13c-4.5,0.8-6.9,2.8-6.8,6.5C21.1,13.3,26.6,15.8,30.8,15.7z"/>
	<path class="st1" d="M131.8,47.3h21.3v6.6h-21.1c-0.2-1.2-0.2-2.5-0.2-4C131.7,48.9,131.7,48.1,131.8,47.3L131.8,47.3z M153,47.1
		c0-9.5-6.5-14.4-14.8-14.5c-10.7-0.2-15.4,6.6-15.5,17.3c-0.1,10.7,5.4,17.4,15.1,17.4h15.2v-6.6h-14.7c-5,0-6.8-3.7-6.8-10.9
		c0-7.1,2.1-10.5,6.6-10.5c4.4-0.1,6.4,2.9,6.4,7.8H153z"/>
	<path class="st1" d="M172.3,52.8c0,2.7,0.1,3.8,0.2,4.2c0.1,0.4,0.4,0.8,0.8,1.1c0.4,0.3,0.9,0.4,1.4,0.4h4.8v8.8h-7.5
		c-1.6,0-3-0.3-4.3-0.8c-1.3-0.5-2.2-1.2-2.8-2.1c-0.6-0.8-1-2-1.2-3.4c-0.2-1-0.3-3.1-0.3-6.2V40.5h8.8V52.8L172.3,52.8z
		 M163.5,33.3v-6.6l8.8-1.6v8.2H163.5L163.5,33.3z M159.5,33.4h18.8v7h-18.8V33.4z"/>
	<path class="st1" d="M198.7,52.8c0,2.7,0.1,3.8,0.2,4.2c0.1,0.4,0.4,0.8,0.8,1.1c0.4,0.3,0.9,0.4,1.4,0.4h4.8v8.8h-7.5
		c-1.6,0-3-0.3-4.3-0.8c-1.3-0.5-2.2-1.2-2.8-2.1c-0.6-0.8-1-2-1.2-3.4c-0.2-1-0.3-3.1-0.3-6.2V40.5h8.8V52.8L198.7,52.8z
		 M189.9,33.3v-6.6l8.8-1.6v8.2H189.9L189.9,33.3z M185.9,33.4h18.8v7h-18.8V33.4z"/>
	<path class="st1" d="M211.9,33.4h27.3v7.4h-27.3V33.4L211.9,33.4z M211.9,59.8l16.3-18.9h11l-16.3,18.9H211.9L211.9,59.8z
		 M211.9,59.9h27.3v7.4h-27.3V59.9z"/>
	<path class="st1" d="M253.4,47.3h21.3v6.6h-21.1c-0.2-1.2-0.2-2.5-0.2-4C253.3,48.9,253.3,48.1,253.4,47.3L253.4,47.3z M274.6,47.1
		c0-9.5-6.5-14.4-14.8-14.5c-10.7-0.2-15.4,6.6-15.5,17.3c-0.1,10.7,5.4,17.4,15.1,17.4h15.2v-6.6h-14.7c-5,0-6.8-3.7-6.8-10.9
		c0-7.1,2.1-10.5,6.6-10.5c4.4-0.1,6.4,2.9,6.4,7.8H274.6z"/>
	<path class="st1" d="M291.6,37.1c1.5-2.9,6-3.2,7.4-3.1c2,0,5.1,0.8,7,1.9l0,8.3c-1.1-0.7-4.4-2.1-6.7-2.1
		c-4.8-0.1-6.1,1.8-7.7,4.7L291.6,37.1L291.6,37.1z M291.5,67.3h-8.7v-33l8.7-1.6v4.4L291.5,67.3z"/>
</g>
</svg>
